<?xml version="1.0" encoding="UTF-8" standalone="no"?>
<!-- Created with Inkscape (http://www.inkscape.org/) -->

<svg
   width="117.54207mm"
   height="117.54207mm"
   viewBox="0 0 117.54207 117.54207"
   version="1.1"
   id="svg5"
   inkscape:version="1.2 (dc2aedaf03, 2022-05-15)"
   sodipodi:docname="logo-black.svg"
   inkscape:export-filename="logo-black.png"
   inkscape:export-xdpi="96"
   inkscape:export-ydpi="96"
   xmlns:inkscape="http://www.inkscape.org/namespaces/inkscape"
   xmlns:sodipodi="http://sodipodi.sourceforge.net/DTD/sodipodi-0.dtd"
   xmlns="http://www.w3.org/2000/svg"
   xmlns:svg="http://www.w3.org/2000/svg">
  <sodipodi:namedview
     id="namedview7"
     pagecolor="#ffffff"
     bordercolor="#666666"
     borderopacity="1.0"
     inkscape:pageshadow="2"
     inkscape:pageopacity="0.0"
     inkscape:pagecheckerboard="0"
     inkscape:document-units="mm"
     showgrid="false"
     inkscape:zoom="1.4142136"
     inkscape:cx="137.53227"
     inkscape:cy="206.12162"
     inkscape:window-width="1920"
     inkscape:window-height="991"
     inkscape:window-x="-9"
     inkscape:window-y="-9"
     inkscape:window-maximized="1"
     inkscape:current-layer="layer1"
     inkscape:showpageshadow="2"
     inkscape:deskcolor="#d1d1d1" />
  <defs
     id="defs2">
    <pattern
       id="EMFhbasepattern"
       patternUnits="userSpaceOnUse"
       width="6"
       height="6"
       x="0"
       y="0" />
  </defs>
  <g
     inkscape:label="Camada 1"
     inkscape:groupmode="layer"
     id="layer1"
     transform="translate(-4.6023058,-211.63027)">
    <rect
       style="fill:#000000;fill-opacity:1;stroke:#000000;stroke-width:0.294633;stroke-linecap:square;stroke-miterlimit:4;stroke-dasharray:none;stroke-opacity:1"
       id="rect104-9-5-6-5"
       width="117.24744"
       height="117.24744"
       x="4.7496223"
       y="211.77759" />
    <path
       style="fill:#f2f3f5;fill-opacity:1;stroke:#f2f3f5;stroke-width:0.163962px;stroke-linecap:butt;stroke-linejoin:miter;stroke-opacity:1"
       d="m 48.817328,258.44018 c 5.362369,20.20598 33.688049,16.34627 27.700684,-12.76459 l 9.433567,0.0156 c 6.07382,40.14479 -38.670914,48.13578 -46.071239,12.83777 z"
       id="path4001-0-2-3-6-2"
       sodipodi:nodetypes="ccccc" />
    <path
       style="fill:#f2f3f5;fill-opacity:1;stroke:#f2f3f5;stroke-width:0.163962px;stroke-linecap:butt;stroke-linejoin:miter;stroke-opacity:1"
       d="m 39.88034,283.98174 c 5.661563,21.76907 40.799305,22.89777 45.992095,-0.0885 h -9.181778 c -1.920226,10.59979 -21.084143,14.02938 -27.873329,0 z"
       id="path5556-3-9-40-2-6"
       sodipodi:nodetypes="ccccc" />
    <path
       style="fill:#2f83e8;fill-opacity:1;stroke:#2f83e8;stroke-width:0.163962px;stroke-linecap:butt;stroke-linejoin:miter;stroke-opacity:1"
       d="m 87.428771,235.00404 c -3.362144,0.0816 -3.855769,-0.0793 -16.981467,0.3589 -21.042385,0.70244 -27.374182,10.45501 -29.11954,22.23824 l 8.969523,8.8e-4 c 1.32845,-10.95382 9.355589,-13.19447 19.914651,-13.517 5.272929,-0.16107 11.254849,-0.2253 17.194096,-0.236 z"
       id="path67-8-6-5-7-9-1-1"
       sodipodi:nodetypes="csccscc" />
    <path
       style="fill:#0e4383;fill-opacity:1;stroke:#0e4383;stroke-width:0.163962px;stroke-linecap:butt;stroke-linejoin:miter;stroke-opacity:1"
       d="m 85.974301,233.54957 c -3.362144,0.0816 -3.855754,-0.0793 -16.98145,0.35892 -21.042386,0.70244 -27.374184,10.45501 -29.11954,22.23821 l 8.969521,9.1e-4 c 1.328451,-10.95383 9.355575,-13.19449 19.914651,-13.517 5.27293,-0.16107 11.254835,-0.22532 17.194096,-0.23602 z"
       id="path67-8-6-5-7-4-3-3-3"
       sodipodi:nodetypes="csccscc" />
  </g>
</svg>
