<?xml version="1.0" encoding="UTF-8" standalone="no"?>
<!-- Created with Inkscape (http://www.inkscape.org/) -->

<svg
   width="160.88983mm"
   height="49.094166mm"
   viewBox="0 0 160.88983 49.094167"
   version="1.1"
   id="svg5"
   inkscape:version="1.2 (dc2aedaf03, 2022-05-15)"
   sodipodi:docname="logo.svg"
   inkscape:export-filename="logo-full-2.png"
   inkscape:export-xdpi="96"
   inkscape:export-ydpi="96"
   xmlns:inkscape="http://www.inkscape.org/namespaces/inkscape"
   xmlns:sodipodi="http://sodipodi.sourceforge.net/DTD/sodipodi-0.dtd"
   xmlns="http://www.w3.org/2000/svg"
   xmlns:svg="http://www.w3.org/2000/svg">
  <sodipodi:namedview
     id="namedview7"
     pagecolor="#ffffff"
     bordercolor="#666666"
     borderopacity="1.0"
     inkscape:pageshadow="2"
     inkscape:pageopacity="0.0"
     inkscape:pagecheckerboard="0"
     inkscape:document-units="mm"
     showgrid="false"
     inkscape:zoom="1.4142136"
     inkscape:cx="236.52721"
     inkscape:cy="81.670829"
     inkscape:window-width="1920"
     inkscape:window-height="991"
     inkscape:window-x="-9"
     inkscape:window-y="-9"
     inkscape:window-maximized="1"
     inkscape:current-layer="layer1"
     inkscape:showpageshadow="2"
     inkscape:deskcolor="#d1d1d1" />
  <defs
     id="defs2">
    <pattern
       id="EMFhbasepattern"
       patternUnits="userSpaceOnUse"
       width="6"
       height="6"
       x="0"
       y="0" />
  </defs>
  <g
     inkscape:label="Camada 1"
     inkscape:groupmode="layer"
     id="layer1"
     transform="translate(16.468536,-246.63584)">
    <rect
       style="fill:#2f83e8;fill-opacity:1;stroke:#2f83e8;stroke-width:0.430785;stroke-dasharray:none;stroke-opacity:1;stop-color:#000000"
       id="rect14918-9-7-6-2"
       width="8.4779072"
       height="19.220253"
       x="99.088943"
       y="272.77411" />
    <rect
       style="fill:#2f83e8;fill-opacity:1;stroke:#2f83e8;stroke-width:0.489287;stroke-dasharray:none;stroke-opacity:1;stop-color:#000000"
       id="rect14918-9-7-6-1-49"
       width="8.419405"
       height="24.967403"
       x="117.43068"
       y="266.99637" />
    <rect
       style="fill:#2f83e8;fill-opacity:1;stroke:#2f83e8;stroke-width:0.538913;stroke-dasharray:none;stroke-opacity:1;stop-color:#000000"
       id="rect14918-9-7-6-1-4-7"
       width="8.3697777"
       height="30.468494"
       x="135.78206"
       y="261.4653" />
    <path
       style="fill:#f2f3f5;fill-opacity:1;stroke:#f2f3f5;stroke-width:0.119537px;stroke-linecap:butt;stroke-linejoin:miter;stroke-opacity:1"
       d="m -9.8758731,264.84374 c 3.9094654,14.73124 24.5604531,11.91733 20.1953301,-9.30611 l 6.877593,0.0105 c 4.428152,29.26778 -28.193236,35.09366 -33.588483,9.35946 z"
       id="path4001-0-2-3-6-2-08"
       sodipodi:nodetypes="ccccc" />
    <path
       style="fill:#f2f3f5;fill-opacity:1;stroke:#f2f3f5;stroke-width:0.142971px;stroke-linecap:butt;stroke-linejoin:miter;stroke-opacity:1"
       d="m 51.209851,257.74464 c -23.567712,-1.56253 -26.460688,25.74927 -0.01468,26.39725 l 0.09172,7.93829 c -37.962377,-0.30244 -33.215935,-45.72802 -0.0011,-41.63208 z"
       id="path4001-0-2-3-6-2-0-9-8"
       sodipodi:nodetypes="ccccc" />
    <path
       style="fill:#f2f3f5;fill-opacity:1;stroke:#f2f3f5;stroke-width:0.119537px;stroke-linecap:butt;stroke-linejoin:miter;stroke-opacity:1"
       d="m -16.391433,283.46497 c 4.127595,15.87082 29.744953,16.69369 33.530785,-0.0646 h -6.694028 c -1.3999475,7.72785 -15.3715036,10.22818 -20.3211971,0 z"
       id="path5556-3-9-40-2-6-8"
       sodipodi:nodetypes="ccccc" />
    <path
       style="fill:#2f83e8;fill-opacity:1;stroke:#2f83e8;stroke-width:0.119537px;stroke-linecap:butt;stroke-linejoin:miter;stroke-opacity:1"
       d="m 18.274006,247.75748 c -2.451191,0.0595 -2.81107,-0.0577 -12.3804289,0.26152 -15.3410628,0.51215 -19.9572961,7.62229 -21.2297561,16.21291 l 6.5392798,6.6e-4 c 0.9685111,-7.98596 6.8207401,-9.61951 14.5188805,-9.85465 3.8442584,-0.11747 8.2054097,-0.16452 12.5354477,-0.17225 z"
       id="path67-8-6-5-7-9-1-1-3"
       sodipodi:nodetypes="csccscc" />
    <path
       style="fill:#0e4383;fill-opacity:1;stroke:#0e4383;stroke-width:0.119537px;stroke-linecap:butt;stroke-linejoin:miter;stroke-opacity:1"
       d="m 17.213615,246.69708 c -2.451186,0.0595 -2.811054,-0.0577 -12.380412,0.26155 -15.341069,0.5121 -19.957297,7.62226 -21.229762,16.21287 l 6.5392797,6.9e-4 c 0.968514,-7.98596 6.8207311,-9.61953 14.5188805,-9.85463 3.8442584,-0.11746 8.2054008,-0.16429 12.5354488,-0.17226 z"
       id="path67-8-6-5-7-4-3-3-3-1"
       sodipodi:nodetypes="csccscc" />
    <path
       style="fill:#f2f3f5;fill-opacity:1;stroke:#f2f3f5;stroke-width:0.144757px;stroke-linecap:butt;stroke-linejoin:miter;stroke-opacity:1"
       d="m 60.787407,272.12217 c 4.734245,17.83916 29.742015,14.43158 24.45598,-11.26939 l 8.328555,0.0135 c 5.362358,35.44243 -34.141193,42.4974 -40.674683,11.334 z"
       id="path4001-0-2-3-6-2-7-76"
       sodipodi:nodetypes="ccccc" />
    <path
       style="fill:#f2f3f5;fill-opacity:1;stroke:#f2f3f5;stroke-width:0.144757px;stroke-linecap:butt;stroke-linejoin:miter;stroke-opacity:1"
       d="m 93.592019,250.14711 c -2.968325,0.0721 -3.404111,-0.0698 -14.992339,0.31687 -18.577605,0.62017 -24.167721,9.23041 -25.708627,19.63337 l 7.91888,7.9e-4 c 1.172835,-9.67075 8.259697,-11.64894 17.581939,-11.93369 4.6553,-0.14219 9.936515,-0.199 15.18007,-0.20847 z"
       id="path67-8-6-5-7-4-3-3-3-8-3"
       sodipodi:nodetypes="csccscc" />
    <path
       style="fill:#f2f3f5;fill-opacity:1;stroke:#f2f3f5;stroke-width:0.155603px;stroke-linecap:butt;stroke-linejoin:miter;stroke-opacity:1"
       d="m 143.76164,249.00416 c -3.37803,0.0733 -3.87395,-0.0712 -17.06156,0.32172 -21.14162,0.62973 -27.503299,9.3722 -29.25687,19.9349 l 9.01182,8.1e-4 c 1.33473,-9.81927 9.3997,-11.82783 20.00856,-12.11695 5.29779,-0.14429 11.30795,-0.20217 17.27521,-0.21164 z"
       id="path67-8-6-5-7-4-3-3-3-8-8-7-89-0-0"
       sodipodi:nodetypes="csccscc" />
    <rect
       style="fill:#0e4383;fill-opacity:1;stroke:#0e4383;stroke-width:0.437593;stroke-dasharray:none;stroke-opacity:1;stop-color:#000000"
       id="rect14918-9-7-6"
       width="8.611907"
       height="19.524042"
       x="97.628319"
       y="271.22275" />
    <rect
       style="fill:#0e4383;fill-opacity:1;stroke:#0e4383;stroke-width:0.497019;stroke-dasharray:none;stroke-opacity:1;stop-color:#000000"
       id="rect14918-9-7-6-1"
       width="8.5524797"
       height="25.362034"
       x="116.25994"
       y="265.35355" />
    <rect
       style="fill:#0e4383;fill-opacity:1;stroke:#0e4383;stroke-width:0.547431;stroke-dasharray:none;stroke-opacity:1;stop-color:#000000"
       id="rect14918-9-7-6-1-4"
       width="8.5020685"
       height="30.950075"
       x="134.90144"
       y="259.73517" />
    <circle
       style="fill:#f2f3f5;fill-opacity:1;stroke:#f2f3f5;stroke-width:0.397045;stroke-opacity:1;stop-color:#000000"
       id="path301"
       cx="22.413851"
       cy="289.36462"
       r="2.5767426" />
    <circle
       style="fill:#2f83e8;fill-opacity:1;stroke:#2f83e8;stroke-width:0.397045;stroke-opacity:1;stop-color:#000000"
       id="path301-4-5"
       cx="22.44021"
       cy="289.38364"
       r="2.5767426" />
    <circle
       style="fill:#0e4383;fill-opacity:1;stroke:#0e4383;stroke-width:0.397045;stroke-opacity:1;stop-color:#000000"
       id="path301-4"
       cx="21.754824"
       cy="288.78583"
       r="2.5767426" />
  </g>
</svg>
